<svg xmlns="http://www.w3.org/2000/svg" width="27" height="21" viewBox="0 0 27 21">
    <path data-name="패스 2669" d="M2337.886 5403.275v-5.054a3.944 3.944 0 0 1 4.083-3.79h13.608a3.944 3.944 0 0 1 4.082 3.79v5.054" transform="translate(-2335.306 -5393.931)" style="stroke:#262525;stroke-linecap:round;stroke-linejoin:round;fill:#f8f8f8"/>
    <g data-name="그룹 2222">
        <path data-name="사각형 1111" d="M1.463 0h3.385a1.463 1.463 0 0 1 1.463 1.463v2.414h0H0h0V1.463A1.463 1.463 0 0 1 1.463 0z" transform="translate(14.412 5.133)" style="fill:#e58ea0;stroke:#262525;stroke-linecap:round;stroke-linejoin:round"/>
        <path data-name="사각형 1112" d="M1.463 0h3.385a1.463 1.463 0 0 1 1.463 1.463v2.414h0H0h0V1.463A1.463 1.463 0 0 1 1.463 0z" style="fill:#e58ea0;stroke:#262525;stroke-linecap:round;stroke-linejoin:round" transform="translate(6.301 5.132)"/>
    </g>
    <path data-name="패스 2668" d="M2339.048 5401.432h20.474a3.039 3.039 0 0 1 2.763 3.256v6.4a1.52 1.52 0 0 1-1.382 1.627h-23.237a1.52 1.52 0 0 1-1.381-1.627v-6.4a3.04 3.04 0 0 1 2.763-3.256h20.474" transform="translate(-2335.785 -5392.211)" style="stroke:#262525;stroke-linecap:round;stroke-linejoin:round;fill:#f8f8f8"/>
</svg>
