<svg xmlns="http://www.w3.org/2000/svg" width="21.009" height="21.171" viewBox="0 0 21.009 21.171">
    <path data-name="패스 2692" d="M1290.825 1161.709h5.66a4.759 4.759 0 0 1 2.289-4.4 1.1 1.1 0 0 0 .479-1.543l-.36-.606a1.522 1.522 0 0 0-1.6-.645c-1.536.325-1.924 1.1-2.772 1.656a1.61 1.61 0 0 1-1.726 0c-.849-.556-1.237-1.331-2.772-1.656a1.521 1.521 0 0 0-1.6.645l-.361.606a1.1 1.1 0 0 0 .48 1.543 4.762 4.762 0 0 1 2.283 4.4z" transform="translate(-1283.149 -1153.965)" style="stroke:#262525;stroke-linecap:round;stroke-linejoin:round;fill:#e58ea0"/>
    <path data-name="패스 2689" d="M1291.474 1162.532s-6.278 3.588-7.159 10.592c-.206 1.637 2.285 2.67 3.988 1.629l.031-.019a3.932 3.932 0 0 1 3.832-.027 4.124 4.124 0 0 0 4.245.021 4.021 4.021 0 0 1 3.892.025h0c1.7 1.041 4.194.008 3.987-1.629-.881-7-7.157-10.592-7.157-10.592z" transform="translate(-1283.799 -1154.788)" style="fill:#fff;stroke:#262525;stroke-linecap:round;stroke-linejoin:round"/>
</svg>
