<svg xmlns="http://www.w3.org/2000/svg" width="12" height="11" viewBox="0 0 12 11">
    <path data-name="패스 1283" d="M2.862 27.567h2.564v5.652H2.862a.431.431 0 0 1-.428-.435V28a.431.431 0 0 1 .428-.433z" transform="translate(-1.934 -22.719)" style="fill:none;stroke:#bababa;stroke-linecap:round;stroke-linejoin:round"/>
    <path data-name="패스 1284" d="m7.06 25.393 2.14-4.348a1.725 1.725 0 0 1 1.709 1.739v1.3h3.308a.858.858 0 0 1 .851.862 1 1 0 0 1-.007.117l-.642 5.217a.859.859 0 0 1-.844.761H7.06" transform="translate(-3.567 -20.545)" style="fill:none;stroke:#bababa;stroke-linecap:round;stroke-linejoin:round"/>
</svg>
