<svg xmlns="http://www.w3.org/2000/svg" width="21" height="19" viewBox="0 0 21 19">
    <path data-name="패스 2629" d="M.978 7.022h2.866V17.2H.978c-.264 0-.478-.35-.478-.782V7.8c0-.428.214-.778.478-.778z" transform="translate(0 1.304)" style="fill:none;stroke:#fff;stroke-linecap:round;stroke-linejoin:round"/>
    <path data-name="패스 2630" d="M5.194 8.186 9.012.5a3.119 3.119 0 0 1 3.108 3.13v2.348h6.015a1.55 1.55 0 0 1 1.549 1.552 1.761 1.761 0 0 1-.013.209L18.5 17.13a1.558 1.558 0 0 1-1.53 1.37H5.769a.65.65 0 0 1-.644-.656V8.482a.664.664 0 0 1 .069-.296z" transform="translate(.816)" style="fill:none;stroke:#fff;stroke-linecap:round;stroke-linejoin:round"/>
</svg>
