<svg data-name="like on_icon" xmlns="http://www.w3.org/2000/svg" width="23" height="21" viewBox="0 0 23 21">
    <path data-name="패스 2629" d="M1.025 7.022h3.153v11.3H1.025c-.29 0-.525-.389-.525-.869V7.891c0-.48.236-.869.525-.869z" transform="translate(0 2.174)" style="fill:#e27188;stroke:#fff;stroke-linecap:round;stroke-linejoin:round"/>
    <path data-name="패스 2630" d="M5.2 9.04 9.4.5a3.449 3.449 0 0 1 3.42 3.477v2.61h6.617a1.713 1.713 0 0 1 1.7 1.724 1.976 1.976 0 0 1-.014.232l-1.281 10.434a1.721 1.721 0 0 1-1.688 1.523H5.833a.719.719 0 0 1-.708-.729V9.369A.744.744 0 0 1 5.2 9.04z" transform="translate(1.36)" style="fill:#e27188;stroke:#fff;stroke-linecap:round;stroke-linejoin:round"/>
</svg>
