<svg xmlns="http://www.w3.org/2000/svg" width="21.225" height="21.224" viewBox="0 0 21.225 21.224">
    <path data-name="사각형 1110" d="M2.959 0h9.268v6.156h0-9.268A2.959 2.959 0 0 1 0 3.2v-.241A2.959 2.959 0 0 1 2.959 0z" transform="rotate(-45 19.865 7.229)" style="stroke:#262525;stroke-linecap:round;stroke-linejoin:round;fill:#fff"/>
    <path data-name="패스 2658" d="m519.29 5435.894-5.351 1.07-4.354-4.354 1.07-5.352a2.052 2.052 0 0 1 2.3-1.629l.11.016a9.248 9.248 0 0 1 5.223 2.611h0a9.246 9.246 0 0 1 2.612 5.224l.016.111a2.052 2.052 0 0 1-1.626 2.303z" transform="translate(-500.232 -5425.092)" style="fill:#e58ea0;stroke:#262525;stroke-linecap:round;stroke-linejoin:round"/>
    <path data-name="선 229" transform="translate(5.103 14.041)" style="fill:none;stroke:#262525;stroke-linecap:round;stroke-linejoin:round" d="M0 2.081 2.081 0"/>
</svg>
