<svg xmlns="http://www.w3.org/2000/svg" width="21.5" height="21.5" viewBox="0 0 21.5 21.5">
    <path data-name="패스 1279" d="M10.5 20.5H1.337a.826.826 0 0 1-.837-.815V10.5a10 10 0 1 1 10 10z" transform="translate(.25 .25)" style="fill:none;stroke:#fff;stroke-linecap:round;stroke-linejoin:round;stroke-width:1.5px"/>
    <path data-name="패스 1280" d="M8.326 7.348a1.3 1.3 0 1 1-1.3 1.3 1.3 1.3 0 0 1 1.3-1.3" transform="translate(2.424 2.533)" style="fill:#fff"/>
    <path data-name="패스 1281" d="M4.413 7.348a1.3 1.3 0 1 1-1.3 1.3 1.3 1.3 0 0 1 1.3-1.3" transform="translate(1.12 2.533)" style="fill:#fff"/>
    <path data-name="패스 1282" d="M12.239 7.348a1.3 1.3 0 1 1-1.3 1.3 1.3 1.3 0 0 1 1.3-1.3" transform="translate(3.728 2.533)" style="fill:#fff"/>
</svg>
