<svg xmlns="http://www.w3.org/2000/svg" width="27.351" height="23" viewBox="0 0 27.351 23">
    <g data-name="plotting photo_icon" transform="translate(.645 .5)">
        <rect data-name="사각형 997" width="26" height="22" rx="2" style="stroke-linecap:round;stroke-linejoin:round;fill:#fff;stroke:#3b3a3a"/>
        <path data-name="패스 2566" d="m1.68 15.3 6.755-9.116a1.074 1.074 0 0 1 1.533-.014l.011.014 6.04 6.133a1.076 1.076 0 0 0 1.533.011l.011-.011 2.789-2.835a1.076 1.076 0 0 1 1.533-.011l.011.011 5.728 5.818" transform="translate(-1.625 3.4)" style="stroke-linecap:round;stroke-linejoin:round;fill:#fff;stroke:#3b3a3a"/>
        <path data-name="패스 2567" d="M8.937 4.469a1.651 1.651 0 1 1-1.624 1.649 1.636 1.636 0 0 1 1.624-1.649" transform="translate(7.854 1.032)" style="fill:#fff;stroke:#3b3a3a"/>
    </g>
</svg>
