<svg xmlns="http://www.w3.org/2000/svg" width="28" height="22.997" viewBox="0 0 28 22.997">
    <g data-name="plotting shots_icon">
        <path data-name="패스 2582" d="M.5 11.533a33.26 33.26 0 0 0 .7 7.692 2.17 2.17 0 0 0 1.246 1.492c3.439 1.451 7.145 1.631 10.816 1.751A31.015 31.015 0 0 0 24.2 21.23q.682-.231 1.349-.513a2.17 2.17 0 0 0 1.251-1.492 33.26 33.26 0 0 0 .7-7.692 33.26 33.26 0 0 0-.7-7.692c-.378-1.557-2.12-1.868-3.42-2.223a29.1 29.1 0 0 0-4.816-.862A37.547 37.547 0 0 0 3.9 1.832a15.94 15.94 0 0 0-1.451.517A2.17 2.17 0 0 0 1.2 3.841a33.26 33.26 0 0 0-.7 7.692z" transform="translate(0 .002)" style="stroke:#3b3a3a;stroke-linecap:round;stroke-linejoin:round;fill:#fff"/>
        <path data-name="패스 2583" d="m14.365 8.832-4.819-3.19a.424.424 0 0 0-.6.137.451.451 0 0 0-.068.241v6.369a.438.438 0 0 0 .429.447.416.416 0 0 0 .236-.07l4.819-3.189a.448.448 0 0 0 .136-.606.436.436 0 0 0-.133-.139z" transform="translate(3.529 2.298)" style="fill:#3b3a3a;stroke:#3b3a3a;stroke-linecap:round;stroke-linejoin:round"/>
    </g>
</svg>
