<svg id="review_icon" xmlns="http://www.w3.org/2000/svg" width="27" height="23.083" viewBox="0 0 27 23.083">
  <defs>
    <style>
      .cls-1 {
        fill: #abd1dd;
      }

      .cls-1, .cls-2 {
        stroke: #3f3f3f;
        stroke-linecap: round;
        stroke-linejoin: round;
      }

      .cls-2 {
        fill: #ffd800;
        stroke-width: 0.8px;
      }
    </style>
  </defs>
  <path id="패스_2603" data-name="패스 2603" class="cls-1" d="M6.73,18.794,2.275,22.269A1.139,1.139,0,0,1,.75,22.135.964.964,0,0,1,.5,21.5V2.192A1.759,1.759,0,0,1,2.32.5H24.681A1.758,1.758,0,0,1,26.5,2.192V16.939a1.758,1.758,0,0,1-1.819,1.691H7.231Z"/>
  <path id="패스_2604" data-name="패스 2604" class="cls-2" d="M3.106,4.667l1.211.8a.206.206,0,0,0,.3-.238L4.269,3.795a.224.224,0,0,1,.07-.22l1.086-.942a.218.218,0,0,0-.114-.382L3.892,2.156a.2.2,0,0,1-.175-.135L3.188.636A.2.2,0,0,0,2.932.512a.207.207,0,0,0-.119.124L2.283,2.021a.2.2,0,0,1-.175.135L.69,2.251a.218.218,0,0,0-.115.382l1.086.942a.222.222,0,0,1,.07.22L1.406,5.124a.246.246,0,0,0,.361.285l1.127-.742A.19.19,0,0,1,3.106,4.667Z" transform="translate(4.5 6.5)"/>
  <path id="패스_2605" data-name="패스 2605" class="cls-2" d="M3.106,4.667l1.211.8a.206.206,0,0,0,.3-.238L4.269,3.795a.224.224,0,0,1,.07-.22l1.086-.942a.218.218,0,0,0-.114-.382L3.892,2.156a.2.2,0,0,1-.175-.135L3.188.636A.2.2,0,0,0,2.932.512a.207.207,0,0,0-.119.124L2.283,2.021a.2.2,0,0,1-.175.135L.69,2.251a.218.218,0,0,0-.115.382l1.086.942a.222.222,0,0,1,.07.22L1.406,5.124a.246.246,0,0,0,.361.285l1.127-.742A.19.19,0,0,1,3.106,4.667Z" transform="translate(11 6.5)"/>
  <path id="패스_2606" data-name="패스 2606" class="cls-2" d="M3.106,4.667l1.211.8a.206.206,0,0,0,.3-.238L4.269,3.795a.224.224,0,0,1,.07-.22l1.086-.942a.218.218,0,0,0-.114-.382L3.892,2.156a.2.2,0,0,1-.175-.135L3.188.636A.2.2,0,0,0,2.932.512a.207.207,0,0,0-.119.124L2.283,2.021a.2.2,0,0,1-.175.135L.69,2.251a.218.218,0,0,0-.115.382l1.086.942a.222.222,0,0,1,.07.22L1.406,5.124a.246.246,0,0,0,.361.285l1.127-.742A.19.19,0,0,1,3.106,4.667Z" transform="translate(17.5 6.5)"/>
</svg>
