<svg xmlns="http://www.w3.org/2000/svg" width="23" height="18.998" viewBox="0 0 23 18.998">
    <path data-name="패스 2582" d="M.5 9.527a27.321 27.321 0 0 0 .571 6.294 1.774 1.774 0 0 0 1.015 1.221 24.231 24.231 0 0 0 8.814 1.432 25.173 25.173 0 0 0 8.916-1.013q.556-.189 1.1-.42a1.774 1.774 0 0 0 1.015-1.221 27.321 27.321 0 0 0 .569-6.293 27.321 27.321 0 0 0-.571-6.294c-.308-1.273-1.729-1.528-2.787-1.818a23.627 23.627 0 0 0-3.923-.706 30.472 30.472 0 0 0-11.95.881c-.4.125-.8.259-1.182.423a1.774 1.774 0 0 0-1.016 1.221A27.321 27.321 0 0 0 .5 9.527z" style="stroke:#e1709d;stroke-linecap:round;stroke-linejoin:round;fill:#fff" transform="translate(0 .001)"/>
    <path data-name="패스 2583" d="m13.349 8.239-3.926-2.61a.345.345 0 0 0-.486.112.37.37 0 0 0-.056.2v5.211a.358.358 0 0 0 .35.366.338.338 0 0 0 .192-.057l3.926-2.609a.368.368 0 0 0 .111-.5.356.356 0 0 0-.111-.113z" transform="translate(1.323 .957)" style="fill:#e1709d;stroke:#e1709d;stroke-linecap:round;stroke-linejoin:round"/>
</svg>
