<svg xmlns="http://www.w3.org/2000/svg" width="28.5" height="22.115" viewBox="0 0 28.5 22.115">
    <g data-name="sound on_icon">
        <path data-name="패스 2751" d="M7.3 10.125H3.921A1.419 1.419 0 0 0 2.5 11.54v6.723a1.419 1.419 0 0 0 1.421 1.415H7.3l5.65 4.772a1.422 1.422 0 0 0 2.339-1.08V6.433a1.422 1.422 0 0 0-2.339-1.08z" transform="translate(-1.75 -3.845)" style="fill:none;stroke:#fff;stroke-linecap:round;stroke-linejoin:round;stroke-width:1.5px"/>
        <path data-name="패스 2752" d="M15.537 19.284a6.554 6.554 0 0 0 2.79-5.623 6.6 6.6 0 0 0-2.79-5.639" transform="translate(3.739 -2.596)" style="fill:none;stroke:#fff;stroke-linecap:round;stroke-linejoin:round;stroke-width:1.5px"/>
        <path data-name="패스 2753" d="M18.507 24.935a13.144 13.144 0 0 0 4.256-10 13.144 13.144 0 0 0-4.263-10" transform="translate(4.987 -3.878)" style="fill:none;stroke:#fff;stroke-linecap:round;stroke-linejoin:round;stroke-width:1.5px"/>
    </g>
</svg>
