<svg xmlns="http://www.w3.org/2000/svg" width="26" height="25" viewBox="0 0 26 25">
    <path d="m19.549 26.837 6.3 4a1.06 1.06 0 0 0 1.575-1.187L25.6 22.476a1.087 1.087 0 0 1 .363-1.1l5.649-4.711a1.084 1.084 0 0 0-.6-1.912l-7.374-.475a1.036 1.036 0 0 1-.913-.675l-2.75-6.922a1.037 1.037 0 0 0-1.95 0l-2.75 6.922a1.036 1.036 0 0 1-.912.675l-7.375.475a1.084 1.084 0 0 0-.6 1.912l5.649 4.711a1.086 1.086 0 0 1 .363 1.1l-1.688 6.647a1.265 1.265 0 0 0 1.875 1.424l5.862-3.711a1.025 1.025 0 0 1 1.1.001z" transform="translate(-5.999 -6)" style="fill:#f7d33e"/>
</svg>
