<svg xmlns="http://www.w3.org/2000/svg" width="21" height="21" viewBox="0 0 21 21">
    <path data-name="패스 2704" d="M393.641 250.49c5.472 0 9.908 2.735 9.908 6.109v11.531a1.062 1.062 0 0 1-1.086 1.037h-1.652a1.062 1.062 0 0 1-1.086-1.037v-10.1c0-2.446-2-3.622-5.9-3.659h-.544c-3.905.038-5.9 1.214-5.9 3.659v10.1a1.062 1.062 0 0 1-1.086 1.037h-1.652a1.062 1.062 0 0 1-1.086-1.037V256.6c0-3.375 4.436-6.109 9.908-6.109z" transform="translate(-383.049 -248.667)" style="stroke:#262525;stroke-linecap:round;stroke-linejoin:round;fill:#f8f8f8"/>
    <path data-name="패스 2701" d="M396.734 248.9a2.479 2.479 0 0 1 2.355 2.516c0 2.466-3.926 4.484-4 4.484s-4-2.018-4-4.484a2.479 2.479 0 0 1 2.354-2.516 2.183 2.183 0 0 0 3.291 0z" transform="translate(-384.588 -248.402)" style="fill:#e58ea0;stroke:#262525;stroke-linecap:round;stroke-linejoin:round"/>
</svg>
