<svg xmlns="http://www.w3.org/2000/svg" width="21" height="19" viewBox="0 0 21 19">
    <g data-name="camera icon" transform="translate(-230.162 -882.606)">
        <path data-name="패스 569" d="M232.884 886.481h1.111a2.235 2.235 0 0 0 2.222-2.25h0a1.118 1.118 0 0 1 1.111-1.125H244a1.119 1.119 0 0 1 1.111 1.125h0a2.235 2.235 0 0 0 2.222 2.25h1.111a2.236 2.236 0 0 1 2.222 2.25h0v10.125a2.235 2.235 0 0 1-2.222 2.25h-15.56a2.235 2.235 0 0 1-2.222-2.25h0v-10.125a2.236 2.236 0 0 1 2.222-2.25h0" style="stroke:#3f3f3f;fill:none;stroke-linecap:round;stroke-linejoin:round"/>
        <ellipse data-name="타원 150" cx="3.333" cy="3.375" rx="3.333" ry="3.375" transform="translate(237.329 889.856)" style="stroke:#3f3f3f;fill:none;stroke-linecap:round;stroke-linejoin:round"/>
        <circle data-name="타원 211" cx=".606" cy=".606" r=".606" transform="translate(233.489 888.745)" style="fill:#3f3f3f;stroke:#3f3f3f"/>
    </g>
</svg>
