<svg xmlns="http://www.w3.org/2000/svg" width="19" height="19" viewBox="0 0 19 19">
    <g data-name="phone icon">
        <path data-name="패스 565" d="M5 4h4l2 5-2.5 1.5a11 11 0 0 0 5 5L15 13l5 2v4a2 2 0 0 1-2 2A16 16 0 0 1 3 6a2 2 0 0 1 2-2" transform="translate(-2.5 -2.5)" style="fill:none;stroke:#3f3f3f;stroke-linecap:round;stroke-linejoin:round"/>
        <path data-name="패스 566" d="M15 7a2 2 0 0 1 2 2" transform="translate(-2.5 -2.5)" style="fill:none;stroke:#3f3f3f;stroke-linecap:round;stroke-linejoin:round"/>
        <path data-name="패스 567" d="M15 3a6 6 0 0 1 6 6" transform="translate(-2.5 -2.5)" style="fill:none;stroke:#3f3f3f;stroke-linecap:round;stroke-linejoin:round"/>
    </g>
</svg>
