<svg xmlns="http://www.w3.org/2000/svg" width="130" height="130" viewBox="0 0 130 130">
    <g data-name="big unlock_icon" transform="translate(34.5 32.008)">
        <circle data-name="타원 294" cx="65" cy="65" r="65" transform="translate(-34.5 -32.008)" style="fill:#f8f8f8"/>
        <g data-name="big unlock_icon">
            <path data-name="패스 1101" d="M10.278 16.5h40.444a5.891 5.891 0 0 1 5.778 6v20.993a5.891 5.891 0 0 1-5.778 6H10.278a5.891 5.891 0 0 1-5.778-6V22.5a5.891 5.891 0 0 1 5.778-6z" transform="translate(0 13.501)" style="fill:none;stroke:#bababa;stroke-linecap:round;stroke-linejoin:round;stroke-width:3px"/>
            <path data-name="패스 1102" d="M10.5 30V18A14.8 14.8 0 0 1 23.493 3.069 14.526 14.526 0 0 1 39.1 15" transform="translate(5.556)" style="fill:none;stroke:#bababa;stroke-linecap:round;stroke-linejoin:round;stroke-width:3px"/>
            <circle data-name="타원 293" cx="5" cy="5" r="5" transform="translate(25.5 40.992)" style="fill:#bababa"/>
        </g>
    </g>
</svg>
