<svg xmlns="http://www.w3.org/2000/svg" width="210" height="176.954" viewBox="0 0 210 176.954">
    <defs>
        <linearGradient id="uwrv7ks3na" x1=".369" y1="1.343" x2=".603" y2="-.338" gradientUnits="objectBoundingBox">
            <stop offset="0" stop-color="#ea9518"/>
            <stop offset="0" stop-color="#fcc62a"/>
            <stop offset="1" stop-color="#fcd355"/>
        </linearGradient>
        <linearGradient id="y6aegi7o0b" x1=".692" y1="1.3" x2=".494" y2="-1.076" gradientUnits="objectBoundingBox">
            <stop offset="0" stop-color="#f5ac1a"/>
            <stop offset="1" stop-color="#ffec41"/>
            <stop offset="1" stop-color="#ffd140"/>
        </linearGradient>
    </defs>
    <g data-name="congra present_icon">
        <g data-name="back shadow_image" transform="translate(0 48.144)">
            <path data-name="패스 1030" d="M895.08 6934.409s24.111 17.369 14.057 25.6 0 11.448 0 11.448 7 25.381-17.964 34.951 113.933-18.061 113.933-18.061-26.57.577-28.234-28.338 7.212-9.141 7.212-9.141-3.656-28.337 10.968-35.651-99.972 19.192-99.972 19.192z" transform="translate(-842.329 -6894.173)" style="fill:#f6f6f6"/>
            <rect data-name="사각형 587" width="195.528" height="24.328" rx="12.164" transform="rotate(-9 431.216 -49.631)" style="fill:#f6f6f6"/>
            <rect data-name="사각형 589" width="194.515" height="23.359" rx="11.679" transform="rotate(-9 671.777 52.87)" style="fill:#f6f6f6"/>
            <rect data-name="사각형 588" width="171.215" height="24.32" rx="12.16" transform="rotate(-9 184.137 -164.343)" style="fill:#f6f6f6"/>
        </g>
        <g data-name="레이어 3">
            <path data-name="패스 1017" d="M374.171 659.521c1.228-.961 4.71-1.155 5.573.545 1.724 3.394-2.18 6.438-3.607 3.71 1.632-5.179 11.406 1.989 3.487 5.074-1.72.67-.18-4.108 3.145-1.574 2.012 1.534 2.277 4.78-.54 5.624" transform="translate(-203.858 -637.501)" style="stroke-width:1.25px;stroke:#00c167;fill:none;stroke-miterlimit:10"/>
        </g>
        <g data-name="레이어 3">
            <path data-name="패스 1017" d="M0 .744c1.222-.971 4.677-1.179 5.528.527 1.7 3.407-2.186 6.482-3.593 3.744C3.574-.2 13.246 6.974 5.378 10.1c-1.709.68-.164-4.13 3.126-1.595 1.991 1.535 2.242 4.8-.556 5.658" transform="rotate(-108 30.725 8.175)" style="stroke:#f39200;stroke-width:1.25px;fill:none;stroke-miterlimit:10"/>
        </g>
        <g data-name="레이어 6">
            <path data-name="패스 1020" d="M462.486 596.02c8.956 3.677 14.33 7.354 21.495 11.03" transform="translate(-313.668 -551.582)" style="stroke-width:8px;stroke:#00b8e0;fill:none;stroke-miterlimit:10"/>
        </g>
        <g data-name="레이어 7">
            <path data-name="패스 1021" d="M1.384 0A21.784 21.784 0 0 1 0 10.448" transform="rotate(48 15.855 156.215)" style="stroke-width:5px;stroke:#f39200;fill:none;stroke-miterlimit:10"/>
        </g>
        <g data-name="레이어 7">
            <path data-name="패스 1021" d="M.966 0A29.077 29.077 0 0 1 0 10.118" transform="rotate(48 -146.377 94.4)" style="stroke-width:5px;stroke:#f39200;fill:none;stroke-miterlimit:10"/>
        </g>
        <g data-name="레이어 7">
            <path data-name="패스 1021" d="M4.546 0A13.681 13.681 0 0 1 0 14.136" transform="scale(-1) rotate(-57 -83.078 125.712)" style="stroke-width:5px;stroke:#00b8e0;fill:none;stroke-miterlimit:10"/>
        </g>
        <g data-name="레이어 9">
            <path data-name="패스 1023" d="M443.105 654.088c-2.489 5.569-5.808 10.343-9.126 15.116" transform="translate(-265.065 -529.177)" style="stroke-width:5px;stroke:#00b8e0;fill:none;stroke-miterlimit:10"/>
        </g>
        <g data-name="레이어 10">
            <path data-name="패스 1024" d="M393.426 466.545a47.041 47.041 0 0 1 10.14 11.048" transform="translate(-327.065 -464.593)" style="stroke:#f640b8;stroke-width:5px;fill:none;stroke-miterlimit:10"/>
        </g>
        <g data-name="레이어 11">
            <path data-name="패스 1025" d="M383.522 634.565c-3.625-1.078-5.249 4.433-1.7 5.7 4.053 1.347 5.947-4.807 1.7-5.7" transform="translate(-350.423 -555.222)" style="fill:#00c167"/>
        </g>
        <g data-name="레이어 12">
            <path data-name="패스 1026" d="M406.049 519.989c-5.438-1.616-7.874 6.651-2.549 8.544 6.081 2.016 8.919-7.211 2.549-8.544" transform="translate(-324.028 -484.382)" style="fill:#00b8e0"/>
        </g>
        <g data-name="레이어 15">
            <path data-name="패스 1029" d="M519.563 590c-4.23-1.262-6.124 5.191-1.982 6.667 4.729 1.576 6.936-5.627 1.982-6.667" transform="translate(-337.229 -510.633)" style="fill:#f640b8"/>
        </g>
        <g transform="translate(49.709 65.642)">
            <path data-name="패스 318" d="M829.358 1441.635a14.5 14.5 0 1 1-.567-28.976h.567c11.821-.2 22.506 11.3 26.94 28.976 4.434-17.678 15.119-29.18 26.94-28.976a14.5 14.5 0 1 1 .568 28.976q-.284.005-.568 0z" transform="translate(-798.425 -1412.656)" style="stroke-width:10px;stroke:#ffa8a1;fill:none;stroke-miterlimit:10"/>
            <path data-name="패스 318" d="M824.773 1443.257a15.3 15.3 0 1 1-.583-30.6q.291-.005.583 0c12.131-.209 23.095 11.931 27.644 30.6 4.551-18.667 15.514-30.812 27.645-30.6a15.3 15.3 0 1 1 .583 30.6h-.583z" transform="translate(-797.128 -1412.656)" style="stroke:#fb513d;stroke-width:10px;fill:none;stroke-miterlimit:10"/>
            <path data-name="패스 317" d="M895.519 1488.811v42.842a12.262 12.262 0 0 1-12.285 12.239H821.8a12.262 12.262 0 0 1-12.285-12.239v-42.842z" transform="translate(-797.231 -1432.685)" style="fill:url(#uwrv7ks3na)"/>
            <rect data-name="사각형 231" width="110.58" height="24.478" rx="7.474" transform="translate(0 31.643)" style="fill:url(#y6aegi7o0b)"/>
            <path data-name="사각형 590" transform="translate(45.4 31.643)" style="fill:rgba(251,81,61,.4);opacity:.7" d="M0 0h22.233v79.564H0z"/>
            <path data-name="사각형 591" transform="translate(45.4 31.337)" style="fill:#fb513d" d="M0 0h19.65v79.87H0z"/>
            <path data-name="패스 1032" d="m854.277 1502.291 19.65-4.731v7.825l-19.65 5.044z" transform="translate(-808.877 -1434.986)" style="fill:rgba(254,155,86,.5)"/>
            <path data-name="패스 1033" d="m854.277 1513.221 19.65-5.044v10.434l-19.65 5.044z" transform="translate(-808.877 -1437.777)" style="fill:rgba(252,151,101,.7)"/>
        </g>
    </g>
</svg>
