<svg xmlns="http://www.w3.org/2000/svg" width="320" height="45" viewBox="0 0 320 45">
    <defs>
        <clipPath id="7qnyl2ruta">
            <path data-name="패스 1" d="M309.148 147.212a8.449 8.449 0 0 0-.139-1.534H301.8v2.9h4.119a3.448 3.448 0 0 1-1.527 2.264v1.882h2.473a7.242 7.242 0 0 0 2.282-5.512zm0 0" transform="translate(-301.801 -145.678)" style="clip-rule:evenodd;fill:none"/>
        </clipPath>
        <clipPath id="3q3jm0ukab">
            <path data-name="패스 2" d="M228.167 185.236a7.394 7.394 0 0 0 5.065-1.817l-2.473-1.882a4.669 4.669 0 0 1-2.592.716 4.552 4.552 0 0 1-4.282-3.092h-2.557v1.939a7.667 7.667 0 0 0 6.839 4.132zm0 0" transform="translate(-221.328 -179.161)" style="clip-rule:evenodd;fill:none"/>
        </clipPath>
        <clipPath id="rqeaythvnc">
            <path data-name="패스 3" d="M215.121 126.4a4.351 4.351 0 0 1 0-2.85v-1.94h-2.557a7.376 7.376 0 0 0 0 6.736l2.557-1.943zm0 0" transform="translate(-211.75 -121.61)" style="clip-rule:evenodd;fill:none"/>
        </clipPath>
        <clipPath id="lg4haive6d">
            <path data-name="패스 4" d="M228.167 74.983a4.181 4.181 0 0 1 2.926 1.122l2.2-2.151A7.438 7.438 0 0 0 228.167 72a7.668 7.668 0 0 0-6.839 4.132l2.557 1.943a4.552 4.552 0 0 1 4.282-3.092zm0 0" transform="translate(-221.328 -72)" style="clip-rule:evenodd;fill:none"/>
        </clipPath>
    </defs>
    <g data-name="사각형 4" style="fill:#fff;stroke:#000">
        <rect width="320" height="45" rx="5" style="stroke:none"/>
        <rect x=".5" y=".5" width="319" height="44" rx="4.5" style="fill:none"/>
    </g>
    <g data-name="그룹 1458">
        <g data-name="그룹 2">
            <g data-name="그룹 1" transform="translate(110.653 21.137)" style="clip-path:url(#7qnyl2ruta)">
                <path data-name="사각형 1" transform="translate(-4.252 -4.167)" style="fill:#3e82f1" d="M0 0h15.85v15.38H0z"/>
            </g>
        </g>
        <g data-name="그룹 4">
            <g data-name="그룹 3" transform="translate(103.814 23.925)" style="clip-path:url(#3q3jm0ukab)">
                <path data-name="사각형 2" transform="translate(-4.252 -4.167)" style="fill:#32a753" d="M0 0h20.407v14.408H0z"/>
            </g>
        </g>
        <g data-name="그룹 6">
            <g data-name="그룹 5" transform="translate(103 19.132)" style="clip-path:url(#rqeaythvnc)">
                <path data-name="사각형 3" transform="translate(-4.252 -4.167)" style="fill:#f9bb00" d="M0 0h11.874v15.07H0z"/>
            </g>
        </g>
        <g data-name="그룹 8">
            <g data-name="그룹 7" transform="translate(103.814 15)" style="clip-path:url(#lg4haive6d)">
                <path data-name="사각형 4" transform="translate(-4.252 -4.167)" style="fill:#e74133" d="M0 0h20.463v14.408H0z"/>
            </g>
        </g>
        <text data-name="Google로 로그인" transform="translate(128 27)" style="font-size:13px;font-family:Roboto-Medium,Roboto;font-weight:500"><tspan x="0" y="0">Google</tspan><tspan y="0" style="font-family:AppleSDGothicNeo-Medium,Apple SD Gothic Neo">로</tspan><tspan y="0"> </tspan><tspan y="0" style="font-family:AppleSDGothicNeo-Medium,Apple SD Gothic Neo">로그인</tspan></text>
    </g>
</svg>
