<svg xmlns="http://www.w3.org/2000/svg" width="15.023" height="19" viewBox="0 0 15.023 19">
    <path data-name="패스 2588" d="M5.5 2.6a2.049 2.049 0 0 1 2-2.1 2.049 2.049 0 0 1 2 2.1 7.35 7.35 0 0 1 4 6.286v3.143a4.286 4.286 0 0 0 .866 2.138.611.611 0 0 1-.45 1H1.088a.611.611 0 0 1-.449-1 4.3 4.3 0 0 0 .861-2.143V8.881a7.35 7.35 0 0 1 4-6.281" transform="translate(.011)" style="fill:none;stroke:#3f3f3f;stroke-linecap:round;stroke-linejoin:round"/>
    <path data-name="패스 2589" d="M3.931 12.167V13A2.535 2.535 0 0 0 6.5 15.5 2.536 2.536 0 0 0 9.07 13v-.833" transform="translate(1.011 3)" style="fill:none;stroke:#3f3f3f;stroke-linecap:round;stroke-linejoin:round"/>
</svg>
