<svg xmlns="http://www.w3.org/2000/svg" width="20" height="20" viewBox="0 0 20 20">
    <g transform="translate(-154 -610)">
        <rect data-name="사각형 4" width="20" height="20" rx="5" transform="translate(154 610)" style="fill:#131419"/>
        <g data-name="그룹 388">
            <path data-name="패스 276" d="M330.239 254.055a2.262 2.262 0 0 1 1.06-1.9 2.286 2.286 0 0 0-1.8-.994c-.766-.079-1.495.459-1.882.459s-.988-.447-1.621-.434a2.4 2.4 0 0 0-2.033 1.252c-.866 1.53-.223 3.8.623 5.039.412.608.9 1.29 1.549 1.265.623-.024.859-.409 1.611-.409s.964.409 1.622.4 1.094-.622 1.5-1.229a5.591 5.591 0 0 0 .681-1.424 2.2 2.2 0 0 1-1.31-2.025z" transform="translate(-163.558 366.256)" style="fill:#fff"/>
            <path data-name="패스 277" d="M392.559 212.531a2.218 2.218 0 0 0 .512-1.6 2.187 2.187 0 0 0-1.446.757 2.118 2.118 0 0 0-.522 1.548 1.811 1.811 0 0 0 1.456-.705z" transform="translate(-227.116 404.064)" style="fill:#fff"/>
        </g>
    </g>
</svg>
