<svg xmlns="http://www.w3.org/2000/svg" width="21" height="21" viewBox="0 0 21 21">
    <path data-name="Icon feather-message-square" d="M24.5 17.833a2.222 2.222 0 0 1-2.222 2.222H8.944L4.5 24.5V6.722A2.222 2.222 0 0 1 6.722 4.5h15.556A2.222 2.222 0 0 1 24.5 6.722z" transform="translate(-4 -4)" style="fill:none;stroke:#e1709d;stroke-linecap:round;stroke-linejoin:round"/>
    <path data-name="패스 2613" d="M8.326 7.348a1.3 1.3 0 1 1-1.3 1.3 1.3 1.3 0 0 1 1.3-1.3" transform="translate(2.173 -.574)" style="fill:#e1709d"/>
    <path data-name="패스 2614" d="M4.413 7.348a1.3 1.3 0 1 1-1.3 1.3 1.3 1.3 0 0 1 1.3-1.3" transform="translate(.87 -.574)" style="fill:#e1709d"/>
    <path data-name="패스 2615" d="M12.239 7.348a1.3 1.3 0 1 1-1.3 1.3 1.3 1.3 0 0 1 1.3-1.3" transform="translate(3.479 -.574)" style="fill:#e1709d"/>
</svg>
