<svg xmlns="http://www.w3.org/2000/svg" width="21" height="21" viewBox="0 0 21 21">
    <path data-name="패스 2707" d="M450.057 4323.7a6.7 6.7 0 0 1-.557-2.673c0-4.044 3.6-7.289 8-7.289s8 3.244 8 7.289a7.07 7.07 0 0 1-3.2 5.821v2.864l-3.139-1.556a8.727 8.727 0 0 1-3.708-.083" transform="translate(-445 -4313.242)" style="fill:none;stroke:#262525;stroke-linecap:round;stroke-linejoin:round"/>
    <path data-name="패스 2706" d="M450.578 4333.483a4.937 4.937 0 1 0-4.9-4.937" transform="translate(-445 -4313.176)" style="fill:none;stroke:#262525;stroke-linecap:round;stroke-linejoin:round"/>
    <path d="M450.583 4333.455a4.87 4.87 0 0 1-2.065-.458l-3.018.646.631-3.044a4.962 4.962 0 0 1-.457-2.086" transform="translate(-445 -4313.143)" style="fill:none;stroke:#262525;stroke-linecap:round;stroke-linejoin:round"/>
</svg>
