<svg data-name="empty cuopon_icon" xmlns="http://www.w3.org/2000/svg" width="31" height="21" viewBox="0 0 31 21">
    <path data-name="패스 2636" d="M29.4 20.5H1.6c-.61 0-1.1-.728-1.1-1.627v-4.086a.047.047 0 0 1 .021-.043 1.875 1.875 0 0 0 .836-1.7 1.875 1.875 0 0 0-.836-1.7.047.047 0 0 1-.021-.051V2.127C.5 1.228.994.5 1.6.5h27.8c.61 0 1.1.728 1.1 1.627v9.163a.047.047 0 0 1-.021.043 1.87 1.87 0 0 0-.842 1.706 1.871 1.871 0 0 0 .839 1.706.047.047 0 0 1 .021.043v4.081c0 .9-.5 1.629-1.1 1.629" style="fill:#bababa;stroke:#bababa"/>
    <path data-name="패스 2637" d="M29.4 20.5H1.6c-.61 0-1.1-.728-1.1-1.627v-4.086a.047.047 0 0 1 .021-.043 1.875 1.875 0 0 0 .836-1.7 1.875 1.875 0 0 0-.836-1.7.047.047 0 0 1-.021-.051V2.127C.5 1.228.994.5 1.6.5h27.8c.61 0 1.1.728 1.1 1.627v9.163a.047.047 0 0 1-.021.043 1.87 1.87 0 0 0-.842 1.706 1.871 1.871 0 0 0 .839 1.706.047.047 0 0 1 .021.043v4.081C30.5 19.766 30 20.5 29.4 20.5z" style="stroke-miterlimit:10;fill:#bababa;stroke:#bababa"/>
    <path data-name="선 223" transform="translate(2.542 13.252)" style="fill:none;stroke:#f8f8f8;stroke-linecap:round;stroke-linejoin:round;stroke-dasharray:2 2" d="M0 0h26.282"/>
</svg>
