<svg xmlns="http://www.w3.org/2000/svg" width="20" height="20" viewBox="0 0 20 20">
    <defs>
        <clipPath id="42plb3ygua">
            <path data-name="패스 1" d="M306.7 146.7a5.636 5.636 0 0 0-.093-1.023H301.8v1.934h2.746a2.3 2.3 0 0 1-1.018 1.509v1.254h1.649a4.828 4.828 0 0 0 1.523-3.674zm0 0" transform="translate(-301.801 -145.678)" style="clip-rule:evenodd;fill:none"/>
        </clipPath>
        <clipPath id="n6j78dvkib">
            <path data-name="패스 2" d="M225.887 183.211a4.929 4.929 0 0 0 3.377-1.211l-1.649-1.254a3.113 3.113 0 0 1-1.728.477 3.034 3.034 0 0 1-2.855-2.061h-1.7v1.3a5.112 5.112 0 0 0 4.559 2.755zm0 0" transform="translate(-221.328 -179.161)" style="clip-rule:evenodd;fill:none"/>
        </clipPath>
        <clipPath id="yy206pd12c">
            <path data-name="패스 3" d="M214 124.805a2.9 2.9 0 0 1 0-1.9v-1.3h-1.7a4.917 4.917 0 0 0 0 4.491l1.7-1.3zm0 0" transform="translate(-211.75 -121.61)" style="clip-rule:evenodd;fill:none"/>
        </clipPath>
        <clipPath id="xtsmf56qed">
            <path data-name="패스 4" d="M225.887 73.989a2.787 2.787 0 0 1 1.95.748L229.3 73.3a4.958 4.958 0 0 0-3.414-1.3 5.112 5.112 0 0 0-4.559 2.755l1.7 1.3a3.034 3.034 0 0 1 2.855-2.061zm0 0" transform="translate(-221.328 -72)" style="clip-rule:evenodd;fill:none"/>
        </clipPath>
    </defs>
    <g data-name="사각형 4" style="fill:#fff;stroke:#f4f4f4">
        <rect width="20" height="20" rx="5" style="stroke:none"/>
        <rect x=".5" y=".5" width="19" height="19" rx="4.5" style="fill:none"/>
    </g>
    <g data-name="그룹 2">
        <g data-name="그룹 1" transform="translate(10.102 9.09)" style="clip-path:url(#42plb3ygua)">
            <path data-name="사각형 1" transform="translate(-2.834 -2.778)" style="fill:#3e82f1" d="M0 0h10.567v10.253H0z"/>
        </g>
    </g>
    <g data-name="그룹 4">
        <g data-name="그룹 3" transform="translate(5.543 10.949)" style="clip-path:url(#n6j78dvkib)">
            <path data-name="사각형 2" transform="translate(-2.834 -2.778)" style="fill:#32a753" d="M0 0h13.605v9.606H0z"/>
        </g>
    </g>
    <g data-name="그룹 6">
        <g data-name="그룹 5" transform="translate(5 7.754)" style="clip-path:url(#yy206pd12c)">
            <path data-name="사각형 3" transform="translate(-2.834 -2.778)" style="fill:#f9bb00" d="M0 0h7.916v10.046H0z"/>
        </g>
    </g>
    <g data-name="그룹 8">
        <g data-name="그룹 7" transform="translate(5.543 4.999)" style="clip-path:url(#xtsmf56qed)">
            <path data-name="사각형 4" transform="translate(-2.834 -2.778)" style="fill:#e74133" d="M0 0h13.642v9.606H0z"/>
        </g>
    </g>
</svg>
