<svg xmlns="http://www.w3.org/2000/svg" width="21.414" height="21.414" viewBox="0 0 21.414 21.414">
    <path data-name="패스 2707" d="M450.031 4323.229a6.381 6.381 0 0 1-.531-2.545c0-3.852 3.427-6.942 7.619-6.942s7.619 3.09 7.619 6.942a6.734 6.734 0 0 1-3.047 5.543v2.728l-2.99-1.482a8.307 8.307 0 0 1-3.531-.078" transform="translate(-444.031 -4313.035)" style="stroke-linejoin:round;fill:none;stroke:#bababa;stroke-linecap:round"/>
    <path data-name="패스 2706" d="M450.344 4333.013a4.7 4.7 0 1 0-4.67-4.7" transform="translate(-443.849 -4313.442)" style="stroke-linejoin:round;fill:none;stroke:#bababa;stroke-linecap:round"/>
    <path d="M450.341 4333.22a4.641 4.641 0 0 1-1.967-.436l-2.874.615.6-2.9a4.729 4.729 0 0 1-.435-1.987" transform="translate(-443.841 -4313.644)" style="stroke-linejoin:round;fill:none;stroke:#bababa;stroke-linecap:round"/>
    <path data-name="패스 2762" d="m249.347 271.059 20-20" transform="translate(-248.64 -250.352)" style="fill:none;stroke:#bababa;stroke-linecap:round"/>
    <path data-name="패스 2763" d="m249.347 271.059 20-20" transform="translate(-248.64 -250.352)" style="fill:none;stroke:#bababa;stroke-linecap:round"/>
</svg>
