<svg xmlns="http://www.w3.org/2000/svg" width="19.023" height="19.024" viewBox="0 0 19.023 19.024">
    <path data-name="패스 2590" d="M8.669 4.3A4.37 4.37 0 1 1 4.3 8.669 4.37 4.37 0 0 1 8.669 4.3z" transform="translate(.842 .843)" style="fill:none;stroke:#3f3f3f;stroke-linecap:round;stroke-linejoin:round"/>
    <path data-name="패스 2591" d="m14.425 2.752 1.823 1.823.764.108a1.341 1.341 0 0 1 1.029.726 9.25 9.25 0 0 1 .389.937 1.338 1.338 0 0 1-.214 1.242l-1.087 1.448s.027.619 0 .929l1.086 1.445a1.343 1.343 0 0 1 .216 1.242 9.291 9.291 0 0 1-.389.94 1.343 1.343 0 0 1-1.03.724l-1.785.256s-.429.446-.656.654l-.256 1.785a1.34 1.34 0 0 1-.725 1.03 9.251 9.251 0 0 1-.937.389 1.344 1.344 0 0 1-1.243-.214l-1.446-1.087a5.372 5.372 0 0 1-.929 0l-1.446 1.086a1.342 1.342 0 0 1-1.242.216 9.4 9.4 0 0 1-.938-.39 1.343 1.343 0 0 1-.725-1.029l-.108-.765-1.824-1.822-.764-.11a1.344 1.344 0 0 1-1.03-.725 9.665 9.665 0 0 1-.389-.937 1.344 1.344 0 0 1 .216-1.243l1.086-1.445s-.028-.619 0-.929L.785 7.589a1.342 1.342 0 0 1-.216-1.242 9.389 9.389 0 0 1 .389-.938 1.345 1.345 0 0 1 1.03-.725l.764-.108c.626-.628 1.2-1.2 1.823-1.823l.108-.764A1.343 1.343 0 0 1 5.41.958a9.539 9.539 0 0 1 .937-.389A1.345 1.345 0 0 1 7.59.785l1.446 1.086a5.138 5.138 0 0 1 .929 0L11.411.784a1.347 1.347 0 0 1 1.241-.216 9.591 9.591 0 0 1 .94.39 1.341 1.341 0 0 1 .724 1.029z" transform="translate(.012 .012)" style="fill:none;stroke:#3f3f3f;stroke-linecap:round;stroke-linejoin:round"/>
</svg>
