<svg xmlns="http://www.w3.org/2000/svg" width="18.581" height="15.699" viewBox="0 0 18.581 15.699">
    <path data-name="패스 2580" d="M16.616 15.2H1.965A1.433 1.433 0 0 1 .5 13.8V4a1.433 1.433 0 0 1 1.465-1.4h2.93l1.03-1.475A1.487 1.487 0 0 1 7.147.5h4.288a1.488 1.488 0 0 1 1.222.625L13.686 2.6h2.93A1.434 1.434 0 0 1 18.081 4v9.8a1.434 1.434 0 0 1-1.465 1.4z" style="stroke:#fff;stroke-linecap:round;stroke-linejoin:round;fill:#bababa"/>
    <path data-name="패스 2581" d="M8.787 5.5a2.94 2.94 0 1 1-2.93 2.939A2.935 2.935 0 0 1 8.787 5.5z" transform="translate(.504 -.1)" style="fill:none;stroke:#fff;stroke-linecap:round;stroke-linejoin:round"/>
</svg>
