<svg xmlns="http://www.w3.org/2000/svg" width="25.414" height="21" viewBox="0 0 25.414 21">
    <g transform="translate(-.918 -1.938)">
        <rect data-name="사각형 997" width="24" height="20" rx="2" transform="translate(1.625 2.438)" style="stroke:#f8f8f8;stroke-linecap:round;stroke-linejoin:round;fill:#bababa"/>
        <path data-name="패스 2566" d="m1.625 12.441 6.287-6.287a1 1 0 0 1 1.415-.012l.01.012 5.575 5.575a1 1 0 0 0 1.415.01l.01-.01 2.575-2.577a1 1 0 0 1 1.415-.01l.01.01 5.287 5.287" transform="translate(0 4.996)" style="fill:none;stroke:#f8f8f8;stroke-linecap:round;stroke-linejoin:round"/>
        <path data-name="패스 2567" d="M8.812 4.469a1.5 1.5 0 1 1-1.5 1.5 1.5 1.5 0 0 1 1.5-1.5" transform="translate(8.313 2.969)" style="fill:#f8f8f8"/>
    </g>
</svg>
