<svg xmlns="http://www.w3.org/2000/svg" width="15" height="15" viewBox="0 0 15 15">
    <path data-name="패스 1279" d="M7.5 14.5H1.086a.578.578 0 0 1-.586-.57V7.5a7 7 0 1 1 7 7z" style="fill:none;stroke:#fff;stroke-linecap:round;stroke-linejoin:round"/>
    <path data-name="패스 1280" d="M7.935 7.348a.913.913 0 1 1-.913.913.913.913 0 0 1 .913-.913" transform="translate(-.435 -.456)" style="fill:#fff"/>
    <path data-name="패스 1281" d="M4.022 7.348a.913.913 0 1 1-.913.913.913.913 0 0 1 .913-.913" transform="translate(-.174 -.456)" style="fill:#fff"/>
    <path data-name="패스 1282" d="M11.848 7.348a.913.913 0 1 1-.913.913.913.913 0 0 1 .913-.913" transform="translate(-.696 -.456)" style="fill:#fff"/>
</svg>
