<svg xmlns="http://www.w3.org/2000/svg" width="24" height="20" viewBox="0 0 24 20">
    <g data-name="non review_icon">
        <path data-name="패스 2603" d="M6.25 17.131 2.138 20.29a1.063 1.063 0 0 1-1.408-.122.869.869 0 0 1-.23-.576V2.038A1.614 1.614 0 0 1 2.18.5h20.641A1.613 1.613 0 0 1 24.5 2.038v13.406a1.613 1.613 0 0 1-1.679 1.537H6.713z" transform="translate(-.5 -.5)" style="fill:#bababa"/>
        <path data-name="패스 2604" d="m2.905 4.346 1.118.738a.19.19 0 0 0 .28-.22l-.324-1.323a.207.207 0 0 1 .065-.2l1-.87a.2.2 0 0 0-.106-.353l-1.31-.088a.185.185 0 0 1-.159-.13L2.981.626a.183.183 0 0 0-.236-.115.191.191 0 0 0-.11.114L2.146 1.9a.185.185 0 0 1-.162.125l-1.308.091a.2.2 0 0 0-.107.353l1 .87a.2.2 0 0 1 .065.2l-.3 1.227a.227.227 0 0 0 .333.263l1.043-.683a.175.175 0 0 1 .195 0z" transform="translate(3.654 5.409)" style="fill:#f8f8f8"/>
        <path data-name="패스 2605" d="m2.905 4.346 1.118.738a.19.19 0 0 0 .28-.22l-.324-1.323a.207.207 0 0 1 .065-.2l1-.87a.2.2 0 0 0-.106-.353l-1.31-.088a.185.185 0 0 1-.159-.13L2.981.626a.183.183 0 0 0-.236-.115.191.191 0 0 0-.11.114L2.146 1.9a.185.185 0 0 1-.162.125l-1.308.091a.2.2 0 0 0-.107.353l1 .87a.2.2 0 0 1 .065.2l-.3 1.227a.227.227 0 0 0 .333.263l1.043-.683a.175.175 0 0 1 .195 0z" transform="translate(9.654 5.409)" style="fill:#f8f8f8"/>
        <path data-name="패스 2606" d="m2.905 4.346 1.118.738a.19.19 0 0 0 .28-.22l-.324-1.323a.207.207 0 0 1 .065-.2l1-.87a.2.2 0 0 0-.106-.353l-1.31-.088a.185.185 0 0 1-.159-.13L2.981.626a.183.183 0 0 0-.236-.115.191.191 0 0 0-.11.114L2.146 1.9a.185.185 0 0 1-.162.125l-1.308.091a.2.2 0 0 0-.107.353l1 .87a.2.2 0 0 1 .065.2l-.3 1.227a.227.227 0 0 0 .333.263l1.043-.683a.175.175 0 0 1 .195 0z" transform="translate(15.654 5.409)" style="fill:#f8f8f8"/>
    </g>
</svg>
