<svg xmlns="http://www.w3.org/2000/svg" width="15" height="15.069" viewBox="0 0 15 15.069">
    <path data-name="패스 2543" d="M4.583 14.5H1.112a.62.62 0 0 1-.612-.62v-3.468a.611.611 0 0 1 .179-.434L9.977.685a.621.621 0 0 1 .876-.007l.007.007 3.456 3.454a.62.62 0 0 1 .007.876l-.007.007-9.3 9.293a.617.617 0 0 1-.435.187" transform="translate(0 .068)" style="fill:#bababa"/>
    <path data-name="패스 2544" d="M4.583 14.5H1.112a.62.62 0 0 1-.612-.62v-3.468a.611.611 0 0 1 .179-.434L9.977.685a.621.621 0 0 1 .876-.007l.007.007 3.456 3.454a.62.62 0 0 1 .007.876l-.007.007-9.3 9.293a.617.617 0 0 1-.433.185z" transform="translate(0 .068)" style="stroke:#f7f7f7;stroke-linecap:round;stroke-linejoin:round;fill:#bababa"/>
    <path data-name="선 212" transform="translate(7.938 2.797)" style="fill:none;stroke:#f7f7f7;stroke-linecap:round;stroke-linejoin:round" d="m0 0 4.339 4.337"/>
</svg>
