<svg xmlns="http://www.w3.org/2000/svg" width="8.999" height="13" viewBox="0 0 8.999 13">
    <path data-name="패스 2545" d="M4.4 0A4.443 4.443 0 0 0 0 4.532v.044a8.452 8.452 0 0 0 1.162 3.772A27.145 27.145 0 0 0 2.648 10.9c.179.269 1.614 2.358 1.851 2.074.237.284 1.673-1.805 1.851-2.074a27.145 27.145 0 0 0 1.487-2.552A8.452 8.452 0 0 0 9 4.576v-.044A4.443 4.443 0 0 0 4.6 0z" style="fill:#bababa"/>
    <path data-name="패스 2546" d="M2.9 4.508a1.692 1.692 0 0 1 1.669-1.716 1.691 1.691 0 0 1 1.665 1.716 1.691 1.691 0 0 1-1.665 1.716A1.692 1.692 0 0 1 2.9 4.508" transform="translate(-.068 .016)" style="fill:#fff"/>
</svg>
