<svg xmlns="http://www.w3.org/2000/svg" width="11" height="13" viewBox="0 0 11 13">
  <defs>
    <style>
      .cls-1 {
        fill: #e1709d;
      }

      .cls-2 {
        fill: #bababa;
      }
    </style>
  </defs>
  <g id="ring_icon" transform="translate(-108.268 -1.147)">
    <path id="패스_2539" data-name="패스 2539" class="cls-1" d="M115.377,6.05l-2.905-2.878a.745.745,0,0,1-.042-1.016l.618-.719a.767.767,0,0,1,.583-.266h3.494a.767.767,0,0,1,.583.266l.618.719a.745.745,0,0,1-.042,1.016Z" transform="translate(-1.678 -0.023)"/>
    <path id="패스_2540" data-name="패스 2540" class="cls-2" d="M118.315,10.145a5.009,5.009,0,0,0-1.143-1.7,5.092,5.092,0,0,0-.858-.667l-1.692,1.676a2.717,2.717,0,0,1,.479.408,3.386,3.386,0,0,1,.77,2.376,3.386,3.386,0,0,1-.69,2.275,2.388,2.388,0,0,1-1.912.8,2.527,2.527,0,0,1-1.958-.8,3.248,3.248,0,0,1-.736-2.275,3.461,3.461,0,0,1,.747-2.365,2.625,2.625,0,0,1,.493-.428l-1.691-1.674a4.951,4.951,0,0,0-.862.674,5.086,5.086,0,0,0-1.132,1.7,5.534,5.534,0,0,0-.407,2.142,5.367,5.367,0,0,0,.385,2.041,4.659,4.659,0,0,0,1.109,1.64,5.314,5.314,0,0,0,1.743,1.093,6.184,6.184,0,0,0,2.286.4,6.1,6.1,0,0,0,2.275-.4,5.123,5.123,0,0,0,1.721-1.1,4.885,4.885,0,0,0,1.1-1.64,5.291,5.291,0,0,0,.385-2.03,5.534,5.534,0,0,0-.407-2.142" transform="translate(0.546 -3.316)"/>
  </g>
</svg>
